<svg xmlns="http://www.w3.org/2000/svg" viewBox="0 0 24 24" style="enable-background:new 0 0 512 512" xml:space="preserve" width="24" height="24"><path d="M20.618 17.678V.736h.637V0H5.073a2.332 2.332 0 0 0-2.329 2.329v18.487h.007a2.336 2.336 0 0 0-.007.172 2.332 2.332 0 0 0 2.329 2.329h2.109V24l1.961-1.207L11.105 24v-.683h10.004v-.736h-1.496v-3.187h1.496v-.736H5.073c-.616 0-1.177.241-1.594.633V2.329c0-.879.715-1.594 1.594-1.594h1.226v16.942h.736V.736h12.848v16.942h.736zM10.37 22.684l-1.226-.754-1.226.754v-1.328h2.452v1.328zm-3.335-3.289h11.843v.601h-5.566v.736h5.566v.515h-6.547v.736h6.547v.601h-7.773v-1.961H7.182v1.961h-.147c-.879 0-1.594-.715-1.594-1.594s.715-1.594 1.594-1.594zm-1.961 0h.265a2.321 2.321 0 0 0 0 3.188h-.265c-.879 0-1.594-.715-1.594-1.594s.715-1.594 1.594-1.594z"/><path d="M11.595 19.995h1.226v.736h-1.226zm-.539-5.848h4.904v.736h-4.904zm.981 1.226h2.942v.736h-2.942zm.098-2.452h4.413v.736h-4.413zm-1.716 0h1.226v.736h-1.226zM8.016 1.692V3.31h.736v-.883h9.513v.834h.736V1.692z"/><path d="M18.265 4.732v12.21H8.751V4.781h-.736v12.897h10.984V4.732z"/><path d="M15.36 3.601h-.684c-.38.957-.651 1.228-1.608 1.608v.684c.957.38 1.228.651 1.608 1.608h.684c.38-.957.651-1.228 1.608-1.608v-.684c-.957-.38-1.228-.651-1.608-1.608zm-.342 2.901a2.442 2.442 0 0 0-.951-.951c.423-.245.706-.528.951-.951.245.423.528.706.951.951a2.442 2.442 0 0 0-.951.951zm-1.154.649h-.684c-.267.673-.445.851-1.118 1.118v.684c.673.267.851.445 1.118 1.118h.684c.267-.673.445-.851 1.118-1.118v-.684c-.673-.267-.851-.445-1.118-1.118zm-.342 1.968a1.833 1.833 0 0 0-.508-.508c.207-.14.368-.301.508-.508.14.207.301.368.508.508-.207.14-.368.301-.508.508zm-1.796-4.028h-.684c-.267.673-.445.851-1.118 1.118v.684c.673.267.851.445 1.118 1.118h.684c.267-.673.445-.851 1.118-1.118v-.684c-.673-.267-.851-.445-1.118-1.118zm-.342 1.968a1.833 1.833 0 0 0-.508-.508c.207-.14.368-.301.508-.508.14.207.301.368.508.508-.207.14-.368.301-.508.508z"/><g/><g/><g/><g/><g/><g/><g/><g/><g/><g/><g/><g/><g/><g/><g/></svg>